<svg width="36" height="36" viewBox="0 0 36 36" fill="none" xmlns="http://www.w3.org/2000/svg">
<path d="M7.0918 24.2054C4.7743 21.8864 3.6148 20.7284 3.1843 19.2239C2.7523 17.7194 3.1213 16.1219 3.8593 12.9284L4.2838 11.0864C4.9033 8.39838 5.2138 7.05438 6.1333 6.13338C7.0528 5.21238 8.3983 4.90338 11.0863 4.28388L12.9283 3.85788C16.1233 3.12138 17.7193 2.75238 19.2238 3.18288C20.7283 3.61488 21.8863 4.77438 24.2038 7.09188L26.9488 9.83688C30.9853 13.8719 32.9998 15.8879 32.9998 18.3929C32.9998 20.8994 30.9838 22.9154 26.9503 26.9489C22.9153 30.9839 20.8993 32.9999 18.3928 32.9999C15.8878 32.9999 13.8703 30.9839 9.8368 26.9504L7.0918 24.2054Z" stroke="#D4A017" stroke-width="2.25"/>
<path d="M19.4996 17.0355C18.9101 17.031 18.2771 17.283 17.7806 17.781C16.9016 18.6585 16.7831 19.965 17.5151 20.697C18.2471 21.429 19.5536 21.3105 20.4311 20.4315C21.3101 19.5525 22.6166 19.4325 23.3486 20.166C24.0806 20.8995 23.9621 22.2045 23.0846 23.085M17.7806 17.781L17.2496 17.25M23.6141 23.6145L23.0831 23.0835C22.4831 23.685 21.6806 23.931 20.9996 23.79" stroke="#D4A017" stroke-width="2.25" stroke-linecap="round"/>
<path d="M15.0319 15.4397C16.2035 14.2681 16.2035 12.3686 15.0319 11.197C13.8604 10.0255 11.9609 10.0255 10.7893 11.197C9.61772 12.3686 9.61772 14.2681 10.7893 15.4397C11.9609 16.6113 13.8604 16.6113 15.0319 15.4397Z" stroke="#D4A017" stroke-width="2.25"/>
</svg>
